Coordinates
version=1
nRows=17
nColumns=23
inDegrees=yes

Units are S.I. units (second, meters, Newtons, ...)
If the header above contains a line with 'inDegrees', this indicates whether rotational values are in degrees (yes) or radians (no).

endheader
time	pelvis_tilt	pelvis_list	pelvis_rotation	pelvis_tx	pelvis_ty	pelvis_tz	hip_flexion_r	hip_adduction_r	hip_rotation_r	knee_angle_r	knee_angle_r_beta	ankle_angle_r	subtalar_angle_r	mtp_angle_r	hip_flexion_l	hip_adduction_l	hip_rotation_l	knee_angle_l	knee_angle_l_beta	ankle_angle_l	subtalar_angle_l	mtp_angle_l
      0.00000000	     -5.12516089	     -4.04745683	     -3.62314799	      2.05560555	      0.94740546	      1.02000087	     25.20236801	      8.01880508	     -2.98170848	     25.02911896	      0.43684053	      5.08595272	     -4.28316120	      0.00000000	     -0.00423458	     -6.17428265	     -3.48837466	     64.46008049	      1.12504064	    -17.37632473	     -4.77825684	      0.00000000
      0.00666667	     -4.80256203	     -4.38796064	     -4.00201458	      2.05375458	      0.94263961	      1.02055189	     25.57213656	      8.47185173	     -3.10598991	     28.37390522	      0.49521807	      7.37536374	     -4.53782037	      0.00000000	      1.16591948	     -6.67498497	     -3.32583337	     67.50709104	      1.17822101	    -16.47283142	     -5.04399410	      0.00000000
      0.01333333	     -4.56437543	     -4.66011808	     -4.37077607	      2.05193141	      0.93767415	      1.02103146	     25.90592952	      8.92606132	     -2.91196757	     31.47114010	      0.54927501	      9.56323319	     -5.00313654	      0.00000000	      2.40436373	     -7.10608990	     -3.14301648	     70.46529766	      1.22985145	    -15.56162441	     -5.14986259	      0.00000000
      0.02000000	     -4.35713186	     -4.84068605	     -4.67520458	      2.05012614	      0.93281510	      1.02141118	     26.12612304	      9.30223831	     -2.57777692	     34.28916583	      0.59845884	     11.64194029	     -5.49766717	      0.00000000	      3.68508840	     -7.40050754	     -2.84818021	     73.27887427	      1.27895763	    -14.72278027	     -5.32793250	      0.00000000
      0.02666667	     -4.11823828	     -4.99438478	     -4.94070389	      2.04832800	      0.92826634	      1.02170470	     26.13554273	      9.66061030	     -2.11861876	     36.76836192	      0.64172898	     13.58807367	     -6.00937535	      0.00000000	      4.94054974	     -7.66398900	     -2.53003220	     75.93502186	      1.32531615	    -13.90848671	     -5.47245922	      0.00000000
      0.03333333	     -4.02384207	     -4.97159269	     -5.18357862	      2.04644993	      0.92392168	      1.02190767	     26.17743777	      9.83090994	     -1.58443209	     39.01180884	      0.68088451	     15.42276765	     -6.40608253	      0.00000000	      6.40066404	     -7.70709291	     -2.16426534	     78.41848345	      1.36866073	    -13.14647192	     -5.68431798	      0.00000000
      0.04000000	     -3.41287875	     -5.25941594	     -5.24531870	      2.04493450	      0.92091988	      1.02187964	     25.27849078	     10.20891525	     -1.18270355	     40.58975448	      0.70842486	     17.05197672	     -6.89101963	      0.00000000	      7.25319715	     -8.05130472	     -1.69170689	     80.60000320	      1.40673543	    -12.43545961	     -5.97849858	      0.00000000
      0.04666667	     -3.71992411	     -5.00795805	     -5.48749944	      2.04287338	      0.91700940	      1.02213834	     25.45466481	     10.12686503	     -0.62090643	     42.28397216	      0.73799453	     18.76085455	     -6.84503534	      0.00000000	      9.28795193	     -7.91006577	     -1.35448715	     82.79838999	      1.44510452	    -11.47753723	     -5.79160165	      0.00000000
      0.05333333	     -3.58206885	     -4.97201716	     -5.55547860	      2.04110571	      0.91435355	      1.02219349	     24.84561843	     10.09345599	     -0.35514533	     43.44120663	      0.75819209	     20.21203637	     -6.73770900	      0.00000000	     10.80339811	     -7.97433057	     -0.94661737	     84.66769319	      1.47773002	    -10.65898273	     -5.80532269	      0.00000000
      0.06000000	     -3.12973843	     -5.02249117	     -5.56552525	      2.03952115	      0.91283343	      1.02221779	     23.61132482	     10.14230649	      0.02334929	     44.10199319	      0.76972499	     21.27969076	     -6.86185463	      0.00000000	     11.93155591	     -8.08966026	     -0.52088413	     86.19688052	      1.50441937	    -10.03537004	     -6.04457851	      0.00000000
      0.06666667	     -2.86012224	     -5.02930214	     -5.55263298	      2.03797447	      0.91167312	      1.02224950	     22.42153604	     10.13576630	      0.35713136	     44.49621371	      0.77660543	     22.46354433	     -6.86180495	      0.00000000	     13.29130925	     -8.14778944	     -0.06684457	     87.52484585	      1.52759674	     -9.20632654	     -6.15548683	      0.00000000
      0.07333333	     -3.11936614	     -4.99852684	     -5.35659530	      2.03665483	      0.91027018	      1.02219328	     21.71211500	      9.87159930	      0.04628543	     44.73397903	      0.78075522	     23.84222377	     -6.11561533	      0.00000000	     15.33927192	     -8.29092551	      0.47526891	     88.77771675	      1.54946346	     -7.90310495	     -5.50970007	      0.00000000
      0.08000000	     -3.12043897	     -4.79435458	     -5.20656874	      2.03545811	      0.90982491	      1.02215944	     20.57756367	      9.42624859	     -0.11933686	     44.71106982	      0.78035538	     24.97732505	     -5.26611894	      0.00000000	     17.00468780	     -8.16088933	      0.88245218	     89.61236864	      1.56403088	     -6.98227943	     -5.42600526	      0.00000000
      0.08666667	     -3.09049015	     -4.50942693	     -5.26281486	      2.03433350	      0.91024675	      1.02255631	     19.19406122	      9.12005720	      0.27975126	     44.27097902	      0.77267435	     25.65298126	     -5.09157860	      0.00000000	     18.50447623	     -8.02344298	      0.99532003	     90.04730093	      1.57162188	     -6.38862447	     -5.57168168	      0.00000000
      0.09333333	     -2.95323599	     -4.44450826	     -4.92683551	      2.03359462	      0.91102218	      1.02244534	     17.59073587	      8.77600399	     -0.04604919	     43.67062336	      0.76219616	     26.50779732	     -4.21609977	      0.00000000	     19.93983935	     -8.02055813	      1.45672698	     90.36734721	      1.57720775	     -5.22315032	     -5.23751467	      0.00000000
      0.10000000	     -2.87644837	     -4.17287311	     -4.79665609	      2.03297720	      0.91245675	      1.02265036	     15.91980989	      8.37497156	      0.07343938	     42.79274279	      0.74687426	     26.99524360	     -3.71863492	      0.00000000	     21.28775537	     -7.85061949	      1.59733188	     90.28626301	      1.57579256	     -4.39000933	     -5.14200895	      0.00000000
      0.10666667	     -2.77064961	     -3.85904432	     -4.69867914	      2.03257655	      0.91449384	      1.02294564	     14.09911712	      7.96231971	      0.28616675	     41.67598924	      0.72738323	     27.28663765	     -3.23633326	      0.00000000	     22.49277682	     -7.66641797	      1.60064978	     89.88993157	      1.56887527	     -3.58295738	     -5.05985336	      0.00000000
